<svg id="drive" viewBox="0 0 19 17" xmlns="http://www.w3.org/2000/svg"><path d="M.42 17V.8h3.52c1.133 0 2.013.2 2.64.6.64.387 1.093.94 1.36 1.66.267.72.4 1.553.4 2.5V12c0 1-.133 1.88-.4 2.64-.267.747-.707 1.327-1.32 1.74-.613.413-1.46.62-2.54.62H.42Zm1.52-1.14h2.04c.853 0 1.48-.173 1.88-.52.4-.36.653-.847.76-1.46.107-.627.16-1.333.16-2.12V5.72c0-.813-.073-1.493-.22-2.04-.133-.56-.407-.98-.82-1.26-.4-.293-1.007-.44-1.82-.44H1.94v13.88ZM10.41 17v-1.08l4.36-6.68c.32-.493.62-.967.9-1.42.28-.467.506-.953.68-1.46.186-.507.28-1.08.28-1.72 0-.867-.18-1.547-.54-2.04-.347-.493-.887-.74-1.62-.74-.654 0-1.16.147-1.52.44-.36.293-.614.7-.76 1.22-.134.507-.2 1.08-.2 1.72v.36h-1.46v-.4c0-1 .133-1.833.4-2.5.266-.68.68-1.193 1.24-1.54.573-.347 1.32-.52 2.24-.52 1.226 0 2.146.367 2.76 1.1.613.72.92 1.727.92 3.02 0 .653-.094 1.253-.28 1.8a8.868 8.868 0 0 1-.72 1.58c-.294.493-.6.993-.92 1.5l-4.04 6.12h5.62V17h-7.34Z"/></svg>