<svg id="footer-logo" viewBox="0 0 100 100" fill="none" xmlns="http://www.w3.org/2000/svg"><path d="M0 50v50H32.88l7.775-7.774 7.784-7.785 3.907 3.907 3.908 3.898.695-.463c2.145-1.43 4.068-3.465 4.974-5.237.907-1.803 1.23-3.807.917-5.75-.393-2.377-1.883-5.368-3.998-7.986-.373-.474-6.324-7.372-13.213-15.348L33.112 42.971l.231-.221c.131-.121 2.961-2.639 6.274-5.59l6.043-5.367.241.292c.141.161 5.942 6.878 12.9 14.924 6.95 8.057 12.951 15.035 13.334 15.509 4.21 5.287 6.516 11.118 6.516 16.485 0 2.085-.423 4.632-1.118 6.727-.494 1.51-1.853 4.29-2.8 5.71-1.833 2.79-4.471 5.72-7.311 8.127l-.504.433H100V53.968L86.687 38.57c-7.321-8.48-13.334-15.408-13.364-15.408-.03 0-3.545 3.112-7.814 6.899-4.26 3.796-7.805 6.888-7.865 6.878-.182-.04-7.704-8.771-7.664-8.892.03-.08 29.517-26.395 31.037-27.694L81.42 0H0v50Z" fill="#FAFAFA"/></svg>