<svg id="logo" viewBox="0 0 99 100" fill="none" xmlns="http://www.w3.org/2000/svg"><path d="M-1 50v50H31.88l7.775-7.774 7.784-7.785 3.907 3.907 3.908 3.898.695-.463c2.145-1.43 4.068-3.465 4.974-5.237.907-1.803 1.23-3.807.917-5.75-.393-2.377-1.883-5.368-3.998-7.986-.373-.474-6.324-7.372-13.213-15.348L32.112 42.971l.231-.222c.131-.12 2.961-2.638 6.274-5.589l6.043-5.367.241.292c.141.16 5.942 6.878 12.9 14.924 6.95 8.056 12.951 15.035 13.334 15.509 4.21 5.287 6.516 11.117 6.516 16.485 0 2.085-.423 4.632-1.118 6.727-.494 1.51-1.853 4.29-2.8 5.71-1.833 2.79-4.471 5.72-7.311 8.127l-.504.433H99V53.968L85.687 38.57c-7.321-8.48-13.334-15.408-13.364-15.408-.03 0-3.544 3.112-7.814 6.898-4.26 3.797-7.805 6.889-7.865 6.879-.182-.04-7.704-8.772-7.664-8.893.03-.08 29.517-26.394 31.037-27.694L80.42 0H-1v50Z" fill="#131926"/></svg>