<svg id="vk" viewBox="0 0 24 16" xmlns="http://www.w3.org/2000/svg"><path d="M0 2.201C0 1.301.617.947 1.375.9L4.91.923c.214 0 .403.142.474.355.807 2.604 1.803 4.213 2.989 6.036.07.142.19.213.308.213.095 0 .19-.048.26-.166l.072-.26.024-4.095c0-.592-.285-.686-.949-.781a.53.53 0 0 1-.427-.52c0-.048 0-.096.024-.143C8.016.544 9.059.024 10.53.024L11.858 0c1.09 0 2.087.473 2.087 1.87v5.373a.5.5 0 0 0 .308.118c.19 0 .427-.118.617-.426 1.233-1.728 2.632-3.787 2.822-4.876 0-.047.023-.07.047-.118.261-.52.925-.876 1.21-.97a.474.474 0 0 1 .213-.048h3.676l.237.024c.356 0 .617.236.735.45.214.33.166.686.19.828v.166c-.356 2.153-2.822 4.568-3.866 6.13-.142.19-.213.355-.213.52 0 .142.071.284.19.426l3.462 4.355c.19.26.285.569.285.829 0 .781-.736 1.23-1.447 1.302l-.403.023h-3.605c-.071 0-.118.024-.19.024-.403 0-.735-.213-.972-.45-.759-.923-1.494-1.87-2.23-2.793-.141-.189-.189-.213-.331-.307-.166.686-.309 1.396-.474 2.106l-.072.403c-.118.426-.427.875-.996.994l-.332.023h-2.324C6.38 15.976 2.704 10.154.12 2.888A2.08 2.08 0 0 1 0 2.2Zm14.253 6.13c-.617 0-1.304-.355-1.304-1.017V1.87c0-.64-.285-.876-1.068-.876l-1.351.047c-.76 0-1.186.119-1.542.355.546.26 1.044.616 1.044 1.61v4.166C9.96 8 9.272 8.544 8.609 8.544c-.45 0-.854-.26-1.091-.686-1.067-1.61-1.969-3.124-2.751-5.302l-.214-.615L1.4 1.917c-.427 0-.38.024-.38.237 0 .142.024.331.048.45l.498 1.325C4.15 10.604 7.4 14.982 10.482 14.982h2.372c.332 0 .308-.402.38-.639l.45-2.083c.095-.213.166-.402.332-.568.19-.189.403-.26.616-.26.451 0 .878.355 1.162.686l2.016 2.557c.166.26.309.307.403.307h3.913c.38 0 .712-.118.712-.355a.456.456 0 0 0-.071-.237l-3.439-4.284c-.284-.355-.403-.71-.403-1.065 0-.378.142-.757.38-1.088.995-1.491 3.13-3.622 3.628-5.373l.071-.308c-.024-.118-.024-.213-.048-.331h-3.723a1.294 1.294 0 0 0-.569.426l-.142.45c-.546 1.514-2.04 3.597-3.107 5.041a1.673 1.673 0 0 1-1.162.473Z"/></svg>