<svg id="youtube" viewBox="0 0 22 17" xmlns="http://www.w3.org/2000/svg"><path d="m14.071 7.198-4.035-2.244a1.601 1.601 0 0 0-1.557.002 1.533 1.533 0 0 0-.57.55 1.466 1.466 0 0 0-.209.752v4.486a1.478 1.478 0 0 0 .777 1.3 1.592 1.592 0 0 0 1.56.003l4.034-2.244c.237-.132.434-.322.57-.55a1.462 1.462 0 0 0 0-1.504 1.529 1.529 0 0 0-.57-.55Zm-.55 1.681L9.49 11.124a.468.468 0 0 1-.63-.16.422.422 0 0 1-.059-.222V6.258c0-.077.02-.154.06-.22a.442.442 0 0 1 .168-.161.454.454 0 0 1 .46 0l4.033 2.245c.07.038.128.093.168.16a.424.424 0 0 1-.168.597ZM18.7 0H3.3C2.425 0 1.586.337.968.935A3.137 3.137 0 0 0 0 3.187v10.626c0 .845.349 1.655.968 2.252A3.363 3.363 0 0 0 3.3 17h15.4c.875 0 1.714-.337 2.332-.934A3.137 3.137 0 0 0 22 13.813V3.187c0-.845-.349-1.655-.968-2.252A3.363 3.363 0 0 0 18.7 0Zm2.2 13.813c0 .563-.233 1.103-.645 1.501a2.243 2.243 0 0 1-1.555.623H3.3a2.243 2.243 0 0 1-1.555-.623 2.092 2.092 0 0 1-.645-1.502V3.188c0-.564.233-1.104.645-1.502A2.243 2.243 0 0 1 3.3 1.063h15.4c.583 0 1.142.225 1.555.623.412.398.644.938.645 1.502v10.624Z"/></svg>