<svg id="footer-logo" viewBox="0 0 100 100" fill="none" xmlns="http://www.w3.org/2000/svg">
<path d="M0 50.0002V100H16.435H32.8802L40.6546 92.2256L48.4391 84.4412L52.3464 88.3485L56.2538 92.2458L56.9486 91.7825C59.0937 90.3525 61.0171 88.3183 61.9235 86.5459C62.8298 84.7433 63.1521 82.7392 62.8399 80.7956C62.4471 78.419 60.9567 75.4281 58.8419 72.8098C58.4693 72.3365 52.5176 65.4382 45.6294 57.4624L33.1118 42.971L33.3434 42.7495C33.4743 42.6286 36.3041 40.111 39.6173 37.1604L45.6596 31.7928L45.9013 32.0849C46.0423 32.246 51.8429 38.963 58.8016 47.0093C65.7503 55.0656 71.7523 62.0445 72.1349 62.5178C76.3444 67.8048 78.6506 73.6356 78.6506 79.0031C78.6506 81.0877 78.2276 83.6355 77.5327 85.7302C77.0393 87.2407 75.6798 90.0202 74.7331 91.4401C72.9003 94.2296 70.2618 97.1601 67.422 99.567L66.9184 100H83.4642H100V76.989V53.968L86.6868 38.5702C79.3656 30.0909 73.3535 23.1624 73.3233 23.1624C73.2931 23.1624 69.7785 26.2742 65.5086 30.0607C61.2487 33.8573 57.7039 36.9489 57.6435 36.9388C57.4622 36.8985 49.9396 28.1675 49.9799 28.0466C50.0101 27.9661 79.4965 1.65196 81.0171 0.352875L81.4199 0.000404358H40.715H0V50.0002Z" fill="#FAFAFA"/>
</svg>
