<svg id="pointer-right" viewBox="0 0 12 12" xmlns="http://www.w3.org/2000/svg">
<path d="M4.4371 1.45005L8.6496 5.65005C8.6996 5.70005 8.7351 5.75422 8.7561 5.81255C8.7771 5.87088 8.78744 5.93338 8.7871 6.00005C8.7871 6.06672 8.77677 6.12922 8.7561 6.18755C8.73544 6.24588 8.69994 6.30005 8.6496 6.35005L4.4371 10.5625C4.32044 10.6792 4.1746 10.7375 3.9996 10.7375C3.8246 10.7375 3.6746 10.675 3.5496 10.55C3.4246 10.425 3.3621 10.2792 3.3621 10.1125C3.3621 9.94588 3.4246 9.80005 3.5496 9.67505L7.2246 6.00005L3.5496 2.32505C3.43294 2.20838 3.3746 2.06455 3.3746 1.89355C3.3746 1.72255 3.4371 1.57471 3.5621 1.45005C3.6871 1.32505 3.83294 1.26255 3.9996 1.26255C4.16627 1.26255 4.3121 1.32505 4.4371 1.45005Z"/>
</svg>
